<svg width="56" height="56" viewBox="0 0 56 56" fill="none" xmlns="http://www.w3.org/2000/svg">
<path d="M45.48 9H10.52C9.67925 9 9 9.67925 9 10.52V45.48C9 46.3208 9.67925 47 10.52 47H45.48C46.3208 47 47 46.3208 47 45.48V10.52C47 9.67925 46.3208 9 45.48 9ZM20.2717 41.3807H14.6335V23.2452H20.2717V41.3807ZM17.455 20.7658C16.8087 20.7658 16.1768 20.5741 15.6394 20.215C15.102 19.8559 14.6831 19.3455 14.4358 18.7484C14.1884 18.1512 14.1237 17.4941 14.2498 16.8602C14.3759 16.2263 14.6871 15.644 15.1442 15.1869C15.6012 14.7299 16.1835 14.4186 16.8174 14.2925C17.4514 14.1664 18.1085 14.2312 18.7056 14.4785C19.3028 14.7259 19.8132 15.1447 20.1722 15.6821C20.5313 16.2196 20.723 16.8514 20.723 17.4977C20.7182 19.3027 19.2552 20.7658 17.455 20.7658ZM41.3807 41.3807H35.7472V32.56C35.7472 30.4557 35.7093 27.753 32.8165 27.753C29.8858 27.753 29.4345 30.0425 29.4345 32.408V41.3807H23.8058V23.2452H29.2113V25.7248H29.2872C30.0377 24.2998 31.876 22.794 34.6215 22.794C40.331 22.794 41.3807 26.5512 41.3807 31.4342V41.3807Z" fill="white"/>
</svg>
