<svg width="56" height="56" viewBox="0 0 56 56" fill="none" xmlns="http://www.w3.org/2000/svg">
<path d="M51 14.2594C49.3069 14.9822 47.4903 15.4724 45.5816 15.6912C47.5305 14.5668 49.0224 12.7833 49.7294 10.6646C47.9013 11.7059 45.8834 12.462 43.7333 12.8719C42.0115 11.1023 39.5624 10 36.846 10C31.6346 10 27.4092 14.0711 27.4092 19.0893C27.4092 19.801 27.4925 20.4962 27.6535 21.1609C19.812 20.7814 12.8587 17.1618 8.20497 11.6616C7.39148 13.0021 6.9287 14.564 6.9287 16.2312C6.9287 19.3856 8.5959 22.1689 11.1255 23.7973C9.57896 23.7475 8.12447 23.3376 6.85113 22.6563V22.7698C6.85113 27.1732 10.105 30.8483 14.4196 31.6847C13.6291 31.8896 12.7955 32.0032 11.9332 32.0032C11.3238 32.0032 10.7345 31.945 10.1567 31.8342C11.3582 35.4484 14.8421 38.0765 18.9699 38.1486C15.7418 40.5857 11.6716 42.0341 7.2507 42.0341C6.48899 42.0341 5.73871 41.9898 5 41.9095C9.17661 44.4934 14.1351 46 19.4643 46C36.8232 46 46.3118 32.1472 46.3118 20.1334L46.2802 18.9564C48.1342 17.6824 49.7381 16.0817 51 14.2594Z" fill="#F7612A"/>
</svg>
