<svg width="42" height="42" viewBox="0 0 42 42" fill="none" xmlns="http://www.w3.org/2000/svg">
<circle cx="21" cy="21" r="20.5" stroke="#30374D"/>
<path d="M28.36 13H13.64C13.286 13 13 13.286 13 13.64V28.36C13 28.714 13.286 29 13.64 29H28.36C28.714 29 29 28.714 29 28.36V13.64C29 13.286 28.714 13 28.36 13ZM17.746 26.634H15.372V18.998H17.746V26.634ZM16.56 17.954C16.2879 17.954 16.0218 17.8733 15.7955 17.7221C15.5693 17.5709 15.3929 17.356 15.2887 17.1046C15.1846 16.8531 15.1573 16.5765 15.2104 16.3096C15.2635 16.0426 15.3946 15.7975 15.587 15.605C15.7795 15.4126 16.0246 15.2815 16.2916 15.2284C16.5585 15.1753 16.8351 15.2026 17.0866 15.3067C17.338 15.4109 17.5529 15.5873 17.7041 15.8135C17.8553 16.0398 17.936 16.3059 17.936 16.578C17.934 17.338 17.318 17.954 16.56 17.954ZM26.634 26.634H24.262V22.92C24.262 22.034 24.246 20.896 23.028 20.896C21.794 20.896 21.604 21.86 21.604 22.856V26.634H19.234V18.998H21.51V20.042H21.542C21.858 19.442 22.632 18.808 23.788 18.808C26.192 18.808 26.634 20.39 26.634 22.446V26.634Z" fill="white"/>
</svg>
