<svg width="42" height="42" viewBox="0 0 42 42" fill="none" xmlns="http://www.w3.org/2000/svg">
<circle cx="21" cy="21" r="20.5" stroke="#30374D"/>
<path d="M31 15.7747C30.3007 16.0759 29.5503 16.2801 28.762 16.3713C29.567 15.9028 30.1832 15.1597 30.4752 14.2769C29.7201 14.7108 28.8866 15.0259 27.9985 15.1966C27.2874 14.4593 26.2758 14 25.1538 14C23.0013 14 21.256 15.6963 21.256 17.7872C21.256 18.0838 21.2904 18.3734 21.3569 18.6504C18.118 18.4923 15.246 16.9841 13.3238 14.6923C12.9878 15.2509 12.7966 15.9016 12.7966 16.5963C12.7966 17.9107 13.4853 19.0704 14.5301 19.7489C13.8913 19.7281 13.2905 19.5573 12.7646 19.2735V19.3208C12.7646 21.1555 14.1086 22.6868 15.8907 23.0353C15.5642 23.1207 15.2199 23.168 14.8637 23.168C14.612 23.168 14.3686 23.1438 14.13 23.0976C14.6262 24.6035 16.0652 25.6986 17.7702 25.7286C16.4368 26.7441 14.7557 27.3476 12.9296 27.3476C12.615 27.3476 12.3051 27.3291 12 27.2956C13.7251 28.3723 15.7732 29 17.9744 29C25.1444 29 29.0636 23.228 29.0636 18.2223L29.0505 17.7318C29.8163 17.201 30.4788 16.534 31 15.7747Z" fill="white"/>
</svg>
